<svg xmlns="http://www.w3.org/2000/svg" width="1366" height="706"><defs><clipPath id="a"><path data-name="Rectangle 941" transform="translate(-11619 -6226)" fill="#fff" d="M0 0h1366v706H0z"/></clipPath><clipPath id="b"><path data-name="Rectangle 729" transform="translate(-80 1548)" fill="#fff" d="M0 0h1366v710H0z"/></clipPath><clipPath id="c"><path data-name="Rectangle 597" fill="#fff" d="M0 0h2785.359v3541.837H0z"/></clipPath></defs><g data-name="Mask Group 75" transform="translate(11619 6226)" clip-path="url(#a)"><g data-name="Mask Group 74" transform="translate(-11539 -7774)" clip-path="url(#b)"><g data-name="Group 1164"><g data-name="Group 1163" transform="translate(-570.15 -1103.672)" clip-path="url(#c)"><path data-name="Path 514" d="m2755.886 2548.183 29.476-29.474-29.476-29.473-2.779 2.779-11.7-52.448 21.506-21.507-29.474-29.474-29.476 29.474 10.154 10.151-121.478 87.842-80.841.22c11.294-48.124 22.582-95.821 29.39-123.68l3.55 3.55 29.477-29.474-29.477-29.473-29.474 29.473 10.656 10.656-123.2 95.424-76.625-101.066 72.425-113.6 9.231 9.231 29.477-29.474-29.477-29.474-26.159 26.159-157-1.307 85.276-168.345 7.608 7.6 29.474-29.474-29.474-29.474-5.362 5.359-56.349-157.1 19.27-19.27-29.473-29.474-24.542 24.539-194.726-14.496-38.524-189.2 31.44-31.441-42.809-42.806-3.113 3.113-31.6-155.2 21.859-21.863-29.473-29.473-27.909 27.915-85.627 4.724 2.735-89.016 27.212-27.212-29.473-29.474-23.08 23.077-150.211-21.262 2.568-2.568-28.91-28.907 74.816-204 3.076 3.079 20.463-20.463-12.648-12.648 85.877-239.9 8.859 8.862 42.809-42.809-39.711-39.711v-89.141l26.376-26.376-29.474-29.474-24.889 24.889-167.226-9.952-18.46-18.463-20.466 20.463 3.293 3.29-92.838 35.737-28.513-28.513-5.7 5.693-46.138-192.837 148.034-156.277 12.145 12.144 29.47-29.474-29.47-29.474-29.477 29.474 2.574 2.571-146.367 31.223-21.68-21.68-29.477 29.474 29.477 29.474 3.116-3.119 24.846 103.844-67 70.737-12.149-12.15-8.974 8.977-117.488-190.992 10.417-10.417-20.463-20.468-20.462 20.468 12.372 12.372-99.068 256.725-3.3-3.3-20.463 20.463 16.273 16.272-13.868 208.133-113.156-14.363-19.862-19.865-10.919 10.919-158.764-87.4 140.954-323.836 3.85 3.853 20.463-20.463-20.463-20.463-20.459 20.464 11.9 11.9-141.7 325.545-20.094-11.064 4.984-4.984-20.463-20.463-20.463 20.463 15.128 15.124-18.01 123.365-20.3 20.3 20.463 20.463 20.463-20.463-11.9-11.9 53.161-122.132 156.689 86.255-4.984 4.987 20.463 20.463 15.386-15.389 117.222 14.881-16.53 248.047-18.595 18.6 20.463 20.463 18.084-18.087 218.306-8.717 2.763 2.763-184.651 84-11.727-11.72-20.458 20.464 16.247 16.247-20.647 300.992-18.635 18.635 20.462 20.463 20.463-20.463-16.241-16.241 20.636-301 18.632-18.635-4.061-4.058 184.654-84.007 4.1 4.092-135.977 210.032-5.8-5.8-20.463 20.463 20.463 20.463 13.787-13.787 107.68 27.184-6.078 6.077 32.029 32.026-75.361 317.633-1.351-1.35-20.463 20.463 20.463 20.463 20.46-20.463-.136-.14 230.65-37.168 14.918 14.921 17.728-17.724 109.9-2.236 13.3 13.3-79.7 149.177-7.976-7.976-29.483 29.474 29.473 29.477 18.706-18.707 228.81 90.911-5.994 5.994 29.473 29.474 20.45-20.447 194.609 55.382-6.976 6.976 4 3.993-339.251 62.447-22.234-22.231-29.474 29.474 29.474 29.474 7.335-7.335 56.627 116.3-68.469 36.112-17.006-17.006-29.473 29.474 29.473 29.474 26.376-26.373h59.823l23.275 23.275v58.062l-232.9-20.81-28.953-28.953-24.474 24.474-111.477-8.611-18.809-18.812-20.463 20.466 20.463 20.463 16.111-16.111 110.073 8.509 21.125 21.122-24.48 125.434-6.837-6.837-42.806 42.8 42.808 42.808 3.122-3.122 15.751 191.884-55.093 1.121-29.6-29.6-33.3 33.3 16.464 16.464-44.426 56.689-109.964 17.78-14.915-14.918-20.463 20.466 20.463 20.462 20.463-20.462-.145-.146 98.931-16-68.475 87.377-6.787-6.784-20.463 20.46 20.463 20.462 20.466-20.462-9.265-9.262 73.072-93.25 88.225-14.265 57.24 109.3-25.8 25.8 42.809 42.809 36.471-36.471 127.429 11.269 19.041 19.035 20.46-20.46-4.736-4.742 193.64-101.39 14.618 57.349-67.685 54.177-21.575-21.574-42.805 42.809 16.1 16.1-190.446 142.39-178.325 63.172-12.685-12.685-20.462 20.466 20.462 20.459 6.886-6.886 26.584 33.268-372.6 278.589-9.494-9.494-20.463 20.46 6.539 6.545-.555.409.771-.2 13.707 13.707 20.463-20.466-1.673-1.673 478.947-124.208 13.7 13.7 20.463-20.463-8.364-8.364 198.094-211.051 131.285-6.6 36.146 75.2-11.5 11.5 20.463 20.466 20.463-20.466-11.721-11.721 36.164-79.509 101.629-5.111 37.818 37.815 38.389-38.391 250.405 8.615 27.476 27.469 29.47-29.474-7.369-7.369 208.022-130.309 15.875 15.875 29.471-29.474-29.471-29.473-16.086 16.082-55.026-33.423 5.477-5.476-20.463-20.463-14.32 14.32-134.215-27.894 4.742-4.745-9.956-9.955 170.988-69.207 12.189 12.189 20.462-20.466-12.31-12.307 22.225-56.719 5.911 5.907 29.47-29.474-18.347-18.347 74.692-176.581ZM689.412 742.749l16.931-116L717.092 616l22.173 12.2Zm1944.952 1994.134-70.009 7.84 43.416-50.157 37.558 31.02-11.133 11.133Zm-79.081 8.856-131.886 14.769-6.378-6.381 66.28-138.171 7.233 7.233 13.942-13.942 98.522 81.374Zm-432.492 360.529-2.181-43.453 293.518 90.738-1.422 1.422-249.79-8.578Zm-297.1-137.437 68.324 23.21-5.034 5.034 5.281 5.287-61.642 21.832-20.221-42.072Zm-347.172-98.912-.372.371-8.475-103.236 339.781-54.939 4.668 4.668-310.66 178.075Zm-9.355-109.057-3.826-46.61 334.14-6.8Zm9.683-280.527 344.79 5.861 157.748 93.569-39.141 33.972-465.911-130.889Zm267.715-71.669v-88.406l46.486 4.154-42.357 88.38Zm8.772 8.772 44.3-92.436 250.762 22.408 28.492 28.489 8.01 87.612-20.612 20.611-240.909-4.095-61.156-36.272 8.717-8.714Zm-11.87-217.86-7.335 7.335-11.566-23.761 213.822-112.769 17 17 29.473-29.473-11.935-11.932 59.685-54.932 13.462 13.462-13.431 137.837-152.832 55.072-29.049-29.052-42.808 42.809 3.422 3.423-45.333 7.555Zm489.261-340.413-115.478 206.956-45.866-73.652 24.13-24.13-14.664-14.664 149.112-97.274Zm-74.204 284.918-108.2 71.334-5.957-5.954 45.228-81.064 48.319-17.409Zm-14.655-35.235 150.181-54.115-130.362 85.95Zm239.311 133.887-123.7 41.071-33.658-44.4 155.332 1.3Zm-45.259 280.2-25.881 20.042-60.5-16.108 3.711-3.711Zm94.879-.257 42.815 56.475-5.826 5.827-150.218-40 28.5-22.076Zm-76.7-5.988 45.467-35.217 26.546 35.021Zm373.483 5.185.818.815-219.4 62.017-1.146-1.149 84.795-61.312Zm-430.326 530.948-3.249 3.25-61.338-160.911 136.393 19.079-2.51 2.509 22.724 22.724-85.7 119.669Zm-181.537-211.648 21.1-107.57 8.428 8.429 16.229-16.229 61.67 161.772-76.787-10.742 2.509-2.509Zm-233.07-638.922 147.331-53.086-4.256 43.657-.966-.966-35.006 35.012-100.468-13.416 2.283-2.283Zm148.746-3.761 5.034-51.649 42.288-15.237-40.9 73.307Zm32.766 39.578 148.393 1.249-36.177 71.421-79.348 26.349-19.676-19.679-7.075 7.078-29.532-63Zm37.772 103.918 70.467-23.4-74.568 147.2-7.143-7.149-8.013-87.606 24.152-24.155Zm122.036 210.457 20.506-20.509 59.406 15.816-122.811 95.118-10.46-10.46 45.572-87.749Zm238.13 44.311-264.8 62.345-11.81-11.818 125.92-97.528 151.314 40.291-3.668 3.664Zm-73.822 171.554 15.213 15.215 1.964 94.322-16.232 16.231-206.573-189.445 2.621-2.621 109.479 65.291.725.434Zm-176.68-228.24-45.578 87.749-20.77-20.776-12.858 12.855-32.958-111.962 11.545-11.544 86.95 23.151-3.429 3.429Zm-121.37-22.934 4.21-4.21 32.958 111.963-22.256 22.259-115.209-68.333 86.719-75.262Zm76.046 203.868 11.985-11.985 206.575 189.449-10.287 10.287-144.4-20.2Zm239.478 23.861-17.253 17.254-91.3-.564-107.418-64.058 22.956-22.959-10.284-10.284 264.794-62.349 9.408 9.408-66.28 138.171Zm82.78-180.624-10.5 10.5-39.479-52.076 63.408-.171c-3.2 13.685-6.678 28.563-10.445 44.736Zm-264.562-70.743-20.983 20.98-86.95-23.152 3.668-3.664-17.263-17.26 78.31-154.585 74.486-24.734 61.326 80.9-83.356 130.752Zm-39.24-185.53 33.367-65.877 33.185 43.779Zm-119.923-76.065-12.013-12.009 107.006-70.544 52.185 83.78Zm27.389-111.736 23.359-41.861 17.012 27.312Zm-8.878 3.2-46.222 16.656 12.654-129.84.966.966 14.178-14.181 46.922 75.333Zm-234.556 130.616 35.009-35.006 100.464 13.413-2.283 2.283 42.806 42.8 11.334-11.328 29.529 63-12.468 12.465-252.651-22.575 36.712-76.6Zm214.635 236.324 8.856 8.859-87.933 76.32-150.18-89.077ZM1987 2583.099l115.615 68.578-5.554 5.553-147.671-41.483Zm105.036 79.156-12.291 12.288 3.029 3.032-202.927 19.32-11.132-11.132 75.07-65.161Zm-206.5 40.324 202.923-19.326 12.192 12.2-225.755 118.21-20.048-78.635 31.568-31.564Zm231.477 9.23-188.544 265.8-10.011-10.008-3.438 3.441-22.582-88.582 219.523-175.71Zm-217.89 295.408 2.877 2.878-50.364 53.656-16.309-33.934Zm7.26 7.261 12.075 12.075 20.038-20.036 92.959 28.74-53.195 116.938-82.129 4.132-41.616-86.587Zm37.066-12.91 4.485-4.489-15.023-15.017 188.55-265.808 12.078 12.078-21.1 107.57-4.383-4.38-42.806 42.809 27.082 27.085-58.3 128.157Zm153.563-95.485 10.039 10.042 6.93 138.152-73.977-22.869Zm16.043 6.049 29.814-29.811 84.791 11.86 63.544 166.687-12.409 12.415 20.46 20.463 10.541-10.541 109.106 65.337-298.62-92.317Zm310.508 231.982-109.255-65.421 5.411-5.409-9.7-9.7 85.7-119.666 15.64 15.643 2.116-2.115 22.442 174.323Zm-9.952-267.92-1.964-94.3 15.581-15.577 122.079-13.67-120.286 138.967Zm95.263-271.352 11.129-11.129-3.983-3.984 219.4-62.01 4.6 4.6-132.973 153.613Zm209.672-172.2 14.89 14.887 2.779-2.778 11.7 52.451-18.477 18.477-126.189.341Zm-134.51 89.626-78.62 56.853-6.741-6.74c3.733-16.021 7.689-32.943 11.669-49.915Zm-53.7-140.528 5.777 5.777c-4.981 19.977-14.032 57.609-30.7 128.77l-69.544.186-29.409-38.791Zm-132.518 94.8-51.878 40.182-96.487.26-9.767-9.77 82.861-129.969Zm-75.711-110.119-58.672-77.4 124.641-41.387 5.957 5.957Zm-102.812-136.455-52.331-84.025 134.983-88.988 3.311 3.308Zm87.975-206.231-19.27 19.27 5.387 5.387-152.869 55.081-19.521-31.345 116.286-208.409 8.28 8.276 5.362-5.359Zm-90.2-180.227 8.413 8.413-149.109 97.274-23.669-23.666-4.618 4.615-20.51-100.751Zm-197.2-20.9-163.175-12.155 106.028-178.861 13.672 13.67 6.115-6.118Zm-460.562-34.306-5.356-5.359 187.441-78.6 29.61 99.721Zm187.835-86.364 58.315-24.452-3.959 128.856-23.886-1.778Zm-261.746-109.772 21.491-59.966 103.345 60.827-6.1 6.109-109.534 2.227Zm-438.687-591.691 199.794-222.258 7.493 7.493.493-.5 34.879 191.128-20.258 20.258-217.584 8.687Zm752.011-423.716v89.145l-26.686 26.686-57.219-18.759 76.725-104.248Zm-31.6 120.741-8.113 8.116 1.391 1.394-76.1 8.283 26.648-36.21Zm-91.177 18.7-185.533 20.2-26.9-113.217 18.994-18.991 222.255 72.865Zm-4.981 6.774-138.889 188.74-40.216-169.243Zm-215.574-91.673 2.974-2.977 25.843 108.747-29.975 3.262Zm30.258 111.845 41.61 175.107-72.583 98.637-3.339-3.339 2.831-266.978Zm283.04 756.637-95.046-45.414-14.955-50.367 155.449-8.58-2.261 73.577Zm42.948-23.006-1.319 42.892-35.238-16.835Zm-145.525-26.007-43.211-20.645-1.577-24.059 31-1.713Zm-111.015-53.04 43.509-121.382 8.556 8.556 7.57 115.323-48.772 2.692Zm-2.023 5.9h-.1l.018-.044Zm-234.834-397.211 110.664 23.737-.942.939 10.207 10.207-126.846 206.912-9.417-9.413-1.985-214.062Zm248.17 237.727-231.74 27.417-18.846-18.846 126.843-206.918 5.758 5.762 6.378-6.378 132.057 175.036-22.188 22.188Zm-226.161 33 231.74-27.42 21.77 21.773-44.28 123.544-219.01-104.643 11.52-11.517Zm274.889 129.26 1.354 20.654-38.9-18.582Zm5.78-6.521-7.89-120.217 1.756-1.756 35.731 120.339Zm-29.638-184.087-132.05-175.036 9.662-9.665-.087-.084 82.223-12.759 45.662 192.138Zm-127.902-190.215-4.271-4.272 70.036-95.17 20.447 86.064Zm-18.22-12.917-85.62-255.793 88.433-9.627Zm-4.587 5.82-6.449 6.452-110.663-23.738 2.6-2.6-29.474-29.473-1.887 1.886-34.879-191.124 13.645-13.648 79.766-8.682ZM1269.64 760.427l-9.7-9.7 33.144-172.867 58.139 173.691Zm56.181 534.619 221.555 105.857-1.112 3.1-208.266 11.5-16.451-16.461-.1.1-13.682-86.036Zm14.1 126.549 204.078-11.266-40.408 112.734-166.9-98.237Zm210.794-11.638 14-.771 52.244 24.96 9.373 142.793-11.563 11.56-105.739-62.24Zm81.6 163.506-8.943-136.254 45.116 21.556 27.556 92.794-50 35.638Zm43.707-111.1 86.906 41.523-61.552 43.871Zm93.293 44.574 40.8 19.493-4.432 144.245-60.3 25.282-42.136-141.922Zm174.565 105.792-131.917 55.314 4.262-138.7 128.891 61.583-11.516 11.517Zm-142.561 199.8-1.756 57.207-1.995 1.995-18.059-60.825Zm4.392 58.833 1.794-58.371 38.778 2.89-35.749 60.3Zm1.986-64.566 4.055-131.951 136.861-57.386 9.6 9.6-108.4 182.869Zm160.341-238.79-18.276 18.276-133.329-63.7 1.546-50.333 101.111-72.072 14.986 14.989 2.36-2.36Zm-58.953-177.836 5.563 5.563-96.431 68.739 2.134-69.4Zm-116.638-118.452-.914.914 25.586 25.586-2.8 90.985-157.451 8.692-37.1-124.972 22.467-22.47Zm-175.9-63.048-9.073-9.073-5.647 5.65-44.661-187.946 127.1-19.722 7.094 7.094Zm85.692-234.048-2.974-2.974-20.463 20.466.034.034-123.108 19.106-21.781-91.648 145.377-197.543 86.7-9.435 22.089 22.089Zm-123.373-428.691 12.378 12.378 16.383-16.383 166.152 9.891 13.329 13.329-78.487 106.656-221.208-72.519 8.113-8.116-9.5-9.5Zm-204.493-295.519 21.215-21.215-2.574-2.571 146.367-31.224 5.154 5.154-145.372 153.467Zm21.426 116.171 46.086 192.608-31.97 31.973 39.293 39.3-1.174 110.547-90.511 9.853-62.065-185.418 17.371-90.611 2.1 2.094 29.474-29.474-12.945-12.945Zm-88.26 102.958-16.092 83.924-101.52-303.3 111.52 181.3-16 16Zm-132.422-226.83 3.3 3.3 2.686-2.686 107.965 322.549-34.427 179.555-.644-.644-6.446 6.446-168.716-229.836 9.587-9.587-12.375-12.368Zm-105.3 287.7 4.584-4.581 168.717 229.83-4.51 4.51-182.55-23.173Zm164.318 235.437 7.979 7.979-199.791 222.262-3.3-3.3 16.624-249.6Zm-74.267 474.665 1.574-1.573-10.182-10.182 135.977-210.023 6.493 6.493 1.986 214.31-28.163 28.166Zm139.311 81.176 3.169-3.166 13.685 86.035-14.952 14.946 11.492 11.492-91.27 189.545 72.239-304.487Zm-72.574 320.424-5.948-5.951 96.558-200.522 4.327 4.33 10.619-10.619 169.3 99.649-20.906 58.318-2.977-2.977-20.46 20.463.161.161Zm396.476-18.929 7.973 7.973 29.474-29.473-10.042-10.046 47.415-33.8 41.728 140.531-190.406 79.837-5.845-5.848Zm-68.779 172.093 1.059-1.063 217.531 16.207 19.688 66.3-9.469 9.472Zm272.969 105.7 4.021-4.024-16.241-16.241 38.122-64.315 167.985 12.514 21.683 106.486-20.952 20.949Zm-162.893 158.553 17.5-17.5-1.924-1.924 339.257-62.453 9.011 9.011-59.684 54.933-13.155-13.159-29.474 29.474 7.887 7.886-211.949 111.785Zm54.706 126.512 12.418 25.5-14.41 14.413h-59.818l-4.789-4.789Zm27.482 69.383 26.379-26.376-1.518-1.518 45.33-7.555 17.808 17.811-38.655 80.658-49.344-4.408Zm-6.2 153.235-13.809 13.813-226.549-121.29 2.717-2.714 237.647 21.234Zm-264.02-88.16 2.172 2.168 16.907-16.907 226.558 121.286-7.992 7.992 29.474 29.473 16.241-16.24 53.173 31.542-332.783-5.659-28.225-28.222Zm-27.727 190.059 22.69-22.693 465.338 130.728-72.325 62.773-20.72-20.72-40.535 40.536-338.235 6.879Zm14.407 251.292-55.339 8.949-20.02-38.227 17.089-17.09 54.369-1.109Zm-141.352 22.854 39.826-50.819 12.428 12.427 9.15-9.15 18.161 34.677Zm89.043-8.122 52.817-8.54 8.862 107.991-6.3 6.3Zm97.28 122.81 310.66-178.074 3.612 3.612-153.867 190.452-6.939-6.941-15.946 15.941-124.808-11.04.62-.623Zm165.26 19.834 153.417-189.9 16.925 16.929 6.145-6.146 19.5 76.489Zm203.2-99.408 228.769-119.79 2.314 2.314-216.8 173.527Zm10.656 66.889 22.8 89.427-11.025 11.021-68.324-23.213 8.416-8.413-16.826-16.83Zm-113.223 89.347 22.284 22.284 11.576-11.576 18.991 39.51-228.06 80.785Zm-211.568 150.459-66.809 49.952-86.488 4.349Zm-163.005 67.628 6.988-6.988 80.327-4.039-60.174 44.989Zm-345.443 320.275 371.488-277.757 114.193 142.9-9.169 9.169 1.672 1.676Zm504.69-138.437-7.716-7.716-6.886 6.883-113.635-142.2 67.394-50.4 254.4-12.8Zm199.667-212.727-251.62 12.656 75.374-56.357 247.462-87.659 17.638 36.694Zm8.918-.449 82.814-88.229 39.454 82.08Zm174.345 70.2-4.061-4.057-4.321 4.318-34.077-70.9 76.334-3.838Zm95.926-195.913 76.888 23.771 2.478 49.4-36.809 36.8-94.755 4.765Zm540.973-82.461-.9.9 20.463 20.463 10.476-10.476 55.029 33.42-8.884 8.884 9.1 9.1-208.018 130.309-13.208-13.211-23.449-182.117 25.171-25.171Zm52.361-142.408-3.37-3.37-20.463 20.46 3.516 3.519-170.984 69.209-6.037-6.037 124.963-144.375 81.587-9.135 13.016 13.013Zm39.315-98.578-6.4-6.4-13.942 13.939-37.905-31.307 132.58-153.173.353.357Z" fill="#fff"/></g></g></g></g></svg>