<svg id="Logo_-_Menzies" data-name="Logo - Menzies" xmlns="http://www.w3.org/2000/svg" width="156.669" height="51.842" viewBox="0 0 156.669 51.842">
  <g id="Menzies_Logo_White" transform="translate(-10 -10)">
    <path id="Path_10102" data-name="Path 10102" d="M838.9,569.873h2.546v6.486h1.622v-6.486h2.554V568.4H838.9Z" transform="translate(-763.969 -514.658)" fill="#141446"/>
    <path id="Path_10103" data-name="Path 10103" d="M889.787,213.624h4.528V200.519a10.262,10.262,0,0,0-.533-3.368,7.154,7.154,0,0,0-1.559-2.624,7.288,7.288,0,0,0-2.475-1.708,8.269,8.269,0,0,0-3.29-.619,9.094,9.094,0,0,0-3.6.682,7.584,7.584,0,0,0-2.71,1.919V192.67H876v20.962h4.481v-12.51a4.765,4.765,0,0,1,1.347-3.525,4.639,4.639,0,0,1,3.439-1.347,4.214,4.214,0,0,1,3.306,1.347,5.023,5.023,0,0,1,1.214,3.525Z" transform="translate(-798.162 -167.927)" fill="#141446"/>
    <path id="Path_10104" data-name="Path 10104" d="M947.676,572.34a2.481,2.481,0,0,0,.376-1.371,2.6,2.6,0,0,0-.211-1.057,2.363,2.363,0,0,0-.588-.815,2.558,2.558,0,0,0-.9-.517,3.621,3.621,0,0,0-1.151-.18h-3v7.959h1.629v-2.812H945l2.06,2.812H948.9l-2.24-3.126A2.459,2.459,0,0,0,947.676,572.34Zm-1.6-.541a1.205,1.205,0,0,1-.893.313h-1.363v-2.28h1.363a1.205,1.205,0,0,1,.893.313,1.11,1.11,0,0,1,.313.823A1.148,1.148,0,0,1,946.078,571.8Z" transform="translate(-859.177 -514.658)" fill="#141446"/>
    <path id="Path_10105" data-name="Path 10105" d="M606.842,569.581a3.884,3.884,0,0,0-1.371-.8,5.249,5.249,0,0,0-1.755-.282H601.1v7.951h2.616a5.06,5.06,0,0,0,1.755-.3,4.078,4.078,0,0,0,1.371-.822,3.742,3.742,0,0,0,.885-1.269,4.234,4.234,0,0,0,0-3.235A3.647,3.647,0,0,0,606.842,569.581Zm-.65,3.909a2.257,2.257,0,0,1-.541.8,2.419,2.419,0,0,1-.846.509,3.251,3.251,0,0,1-1.1.18h-.979v-5.013h.979a3.256,3.256,0,0,1,1.1.172,2.373,2.373,0,0,1,.846.486,2.1,2.1,0,0,1,.541.776,2.891,2.891,0,0,1,0,2.092Z" transform="translate(-544.796 -514.75)" fill="#141446"/>
    <path id="Path_10106" data-name="Path 10106" d="M1161.9,215.269h-11.092l11.014-15.792V198.2h-16.74v3.878h10L1144.1,217.917v1.238h17.8Z" transform="translate(-1045.261 -173.457)" fill="#141446"/>
    <rect id="Rectangle_1124" data-name="Rectangle 1124" width="1.629" height="7.951" transform="translate(64.912 53.742)" fill="#141446"/>
    <path id="Path_10107" data-name="Path 10107" d="M593,194.834a9.194,9.194,0,0,0-3.071-2.005,10.238,10.238,0,0,0-3.885-.728,10.549,10.549,0,0,0-4.269.854,11.2,11.2,0,0,0-3.439,2.327,10.617,10.617,0,0,0-2.3,3.478,11.111,11.111,0,0,0-.83,4.308,10.818,10.818,0,0,0,.854,4.308,10.494,10.494,0,0,0,5.938,5.781,12.117,12.117,0,0,0,4.528.83,11.677,11.677,0,0,0,4.614-.893,12.738,12.738,0,0,0,3.76-2.475l-2.178-3.071a10.655,10.655,0,0,1-2.773,1.817,8.174,8.174,0,0,1-3.329.658,7.109,7.109,0,0,1-4.528-1.449,6.4,6.4,0,0,1-2.3-4.058h15.612a8.063,8.063,0,0,0,.235-1.2,11.814,11.814,0,0,0,.11-1.622,9.975,9.975,0,0,0-.729-3.823A9.318,9.318,0,0,0,593,194.834Zm-13.145,6.2a6.611,6.611,0,0,1,2.131-3.737,5.835,5.835,0,0,1,3.925-1.387,5.485,5.485,0,0,1,3.69,1.324,4.959,4.959,0,0,1,1.645,3.8Z" transform="translate(-520.925 -167.835)" fill="#141446"/>
    <path id="Path_10108" data-name="Path 10108" d="M755.4,569.941l-.9-.4a4.011,4.011,0,0,1-.689-.384.631.631,0,0,1-.243-.533.644.644,0,0,1,.29-.588,1.253,1.253,0,0,1,.7-.188,1.5,1.5,0,0,1,.862.243,2.456,2.456,0,0,1,.658.674l1.1-.854a2.98,2.98,0,0,0-1.018-1.081,2.913,2.913,0,0,0-1.622-.431,3.4,3.4,0,0,0-1.034.157,2.433,2.433,0,0,0-.83.454,2.168,2.168,0,0,0-.556.713,2.013,2.013,0,0,0-.2.932,1.912,1.912,0,0,0,.541,1.371,2.786,2.786,0,0,0,.611.5,6.017,6.017,0,0,0,.776.415l.846.384a4.1,4.1,0,0,1,.744.407.658.658,0,0,1,.266.58.773.773,0,0,1-.3.65,1.285,1.285,0,0,1-.822.227,2.1,2.1,0,0,1-.65-.094,1.931,1.931,0,0,1-.525-.259,2.75,2.75,0,0,1-.431-.368,4.684,4.684,0,0,1-.352-.431l-1.12.846a3.433,3.433,0,0,0,3.079,1.763,3.536,3.536,0,0,0,1.1-.165,2.617,2.617,0,0,0,.877-.47,2.13,2.13,0,0,0,.588-.752,2.325,2.325,0,0,0,.219-1,1.9,1.9,0,0,0-.509-1.379A4.78,4.78,0,0,0,755.4,569.941Z" transform="translate(-683.415 -512.815)" fill="#141446"/>
    <path id="Path_10109" data-name="Path 10109" d="M1453.415,567.683a4.242,4.242,0,0,0-1.347-.87,4.311,4.311,0,0,0-1.653-.313,4.243,4.243,0,0,0-1.645.313,4.3,4.3,0,0,0-1.339.87,4.1,4.1,0,0,0,0,5.875,4.121,4.121,0,0,0,1.339.87,4.516,4.516,0,0,0,3.306,0,4.242,4.242,0,0,0,1.347-.87,4.147,4.147,0,0,0,.9-4.567A4.263,4.263,0,0,0,1453.415,567.683Zm-.619,4a2.367,2.367,0,0,1-.533.823,2.41,2.41,0,0,1-.815.533,2.7,2.7,0,0,1-1.01.2,2.617,2.617,0,0,1-1.034-.2,2.456,2.456,0,0,1-.807-.533,2.372,2.372,0,0,1-.533-.823,3.07,3.07,0,0,1,0-2.115,2.265,2.265,0,0,1,.533-.823,2.359,2.359,0,0,1,.807-.54,2.7,2.7,0,0,1,1.034-.2,2.553,2.553,0,0,1,1.01.2,2.317,2.317,0,0,1,.815.54,2.522,2.522,0,0,1,.533.823,2.858,2.858,0,0,1,.2,1.057A2.888,2.888,0,0,1,1452.8,571.686Z" transform="translate(-1323.696 -512.907)" fill="#141446"/>
    <path id="Path_10110" data-name="Path 10110" d="M1582.247,571.488l-4.606-4.888h-.541v8.1h1.629v-4.778l4.614,4.919h.533v-8.1h-1.629Z" transform="translate(-1444.342 -512.999)" fill="#141446"/>
    <rect id="Rectangle_1125" data-name="Rectangle 1125" width="1.629" height="7.951" transform="translate(119.104 53.742)" fill="#141446"/>
    <path id="Path_10111" data-name="Path 10111" d="M1817.766,204.074a13.817,13.817,0,0,0-4.309-2.6l-1.966-.815a9.9,9.9,0,0,1-2.131-1.112,1.759,1.759,0,0,1,.133-2.875,3.885,3.885,0,0,1,2.052-.494,6.634,6.634,0,0,1,2.647.556,7.251,7.251,0,0,1,2.3,1.582l2.436-2.773a8.946,8.946,0,0,0-3.141-2.413,9.751,9.751,0,0,0-4.12-.83,10.062,10.062,0,0,0-2.906.407,7.044,7.044,0,0,0-2.35,1.175,5.512,5.512,0,0,0-1.559,1.9,5.609,5.609,0,0,0-.58,2.585,5.218,5.218,0,0,0,.384,2.092,5.417,5.417,0,0,0,1.089,1.622,7.723,7.723,0,0,0,1.708,1.3,18.4,18.4,0,0,0,2.287,1.089l2.131.893a11.746,11.746,0,0,1,2.092,1.05,1.751,1.751,0,0,1,.815,1.559,1.916,1.916,0,0,1-.979,1.77,4.585,4.585,0,0,1-2.35.58,6.239,6.239,0,0,1-3.219-.83,12.743,12.743,0,0,1-2.71-2.154L1803,210.16a10.319,10.319,0,0,0,8.452,4.05,10.568,10.568,0,0,0,2.985-.407,7.377,7.377,0,0,0,2.475-1.214,5.786,5.786,0,0,0,1.684-2.005,5.931,5.931,0,0,0,.619-2.773A4.974,4.974,0,0,0,1817.766,204.074Z" transform="translate(-1652.546 -168.02)" fill="#141446"/>
    <rect id="Rectangle_1126" data-name="Rectangle 1126" width="1.629" height="7.951" transform="translate(91.147 53.742)" fill="#141446"/>
    <rect id="Rectangle_1127" data-name="Rectangle 1127" width="4.481" height="20.962" transform="translate(120.507 24.743)" fill="#141446"/>
    <path id="Path_10112" data-name="Path 10112" d="M1534.1,194.834a9.2,9.2,0,0,0-3.071-2.005,10.238,10.238,0,0,0-3.885-.728,10.549,10.549,0,0,0-4.269.854,11.205,11.205,0,0,0-3.439,2.327,10.5,10.5,0,0,0-2.3,3.478,11.111,11.111,0,0,0-.83,4.308,10.817,10.817,0,0,0,.854,4.308,10.494,10.494,0,0,0,5.938,5.781,12.117,12.117,0,0,0,4.528.83,11.678,11.678,0,0,0,4.614-.893,12.738,12.738,0,0,0,3.76-2.475l-2.178-3.071a10.655,10.655,0,0,1-2.773,1.817,8.174,8.174,0,0,1-3.329.658,7.109,7.109,0,0,1-4.528-1.449,6.4,6.4,0,0,1-2.3-4.058h15.6a8.078,8.078,0,0,0,.235-1.2,11.824,11.824,0,0,0,.11-1.622,9.972,9.972,0,0,0-.729-3.823A9.177,9.177,0,0,0,1534.1,194.834Zm-13.145,6.2a6.611,6.611,0,0,1,2.131-3.737,5.835,5.835,0,0,1,3.925-1.387,5.486,5.486,0,0,1,3.69,1.324,4.958,4.958,0,0,1,1.645,3.8Z" transform="translate(-1388.305 -167.835)" fill="#141446"/>
    <path id="Path_10113" data-name="Path 10113" d="M1198.623,573.186a2.19,2.19,0,0,1-.133.783,1.53,1.53,0,0,1-.924.909,1.991,1.991,0,0,1-.689.117,1.96,1.96,0,0,1-.689-.117,1.513,1.513,0,0,1-.556-.345,1.636,1.636,0,0,1-.368-.564,2.187,2.187,0,0,1-.133-.783V568.4H1193.5v4.669a3.928,3.928,0,0,0,.251,1.434,3.155,3.155,0,0,0,.7,1.081,2.992,2.992,0,0,0,1.073.682,3.774,3.774,0,0,0,1.347.235,3.731,3.731,0,0,0,1.339-.235,3.029,3.029,0,0,0,1.065-.682,3.252,3.252,0,0,0,.713-1.081,3.77,3.77,0,0,0,.259-1.434v-4.661h-1.629Z" transform="translate(-1090.791 -514.658)" fill="#141446"/>
    <rect id="Rectangle_1128" data-name="Rectangle 1128" width="5.648" height="5.648" transform="translate(118.75 18.255) rotate(-45)" fill="#141446"/>
    <path id="Path_10114" data-name="Path 10114" d="M1099.847,572.05a1.828,1.828,0,0,0,.431-.627,2.057,2.057,0,0,0,.157-.807,2.132,2.132,0,0,0-.188-.9,2,2,0,0,0-.517-.7,2.338,2.338,0,0,0-.8-.454,3.016,3.016,0,0,0-1.018-.165H1095.1v7.959h3.533a3.1,3.1,0,0,0,1.065-.172,2.351,2.351,0,0,0,.83-.486,2.1,2.1,0,0,0,.533-.736,2.329,2.329,0,0,0,.2-.948,1.958,1.958,0,0,0-.376-1.222A2.172,2.172,0,0,0,1099.847,572.05Zm-3.157-2.248h1.112a1.076,1.076,0,0,1,.768.243.851.851,0,0,1,.266.666.873.873,0,0,1-.266.666,1.056,1.056,0,0,1-.768.251h-1.112Zm2.663,4.888a1.2,1.2,0,0,1-.838.266h-1.833v-2h1.833a1.2,1.2,0,0,1,.838.274.944.944,0,0,1,.3.729A.908.908,0,0,1,1099.354,574.69Z" transform="translate(-1000.099 -514.658)" fill="#141446"/>
    <path id="Path_10115" data-name="Path 10115" d="M1297.9,569.873h2.546v6.486h1.629v-6.486h2.554V568.4H1297.9Z" transform="translate(-1187.013 -514.658)" fill="#141446"/>
    <path id="Path_10116" data-name="Path 10116" d="M261.646,312.586,259.1,312.5l1.277,2.577Z" transform="translate(-229.587 -278.804)" fill="#141446"/>
    <path id="Path_10117" data-name="Path 10117" d="M347.709,318.089l-.431-2.272-3.588-.117-1.191,2.389Z" transform="translate(-306.454 -281.753)" fill="#141446"/>
    <path id="Path_10118" data-name="Path 10118" d="M243.595,274.887l1.277-2.507-5.671-.18,1.332,2.687Z" transform="translate(-211.246 -241.661)" fill="#141446"/>
    <path id="Path_10119" data-name="Path 10119" d="M149,272.4h3.126l-1.387-2.867-1.128-.031Z" transform="translate(-128.111 -239.172)" fill="#141446"/>
    <path id="Path_10120" data-name="Path 10120" d="M382.1,250.855h.932l-.251-1.355Z" transform="translate(-342.952 -220.739)" fill="#141446"/>
    <path id="Path_10121" data-name="Path 10121" d="M158.364,250.579l-.674-1.379-.29,1.379Z" transform="translate(-135.853 -220.462)" fill="#141446"/>
    <path id="Path_10122" data-name="Path 10122" d="M311.863,394.151l-7.818-.251-1.246,2.483h9.486Z" transform="translate(-269.864 -353.827)" fill="#141446"/>
    <path id="Path_10123" data-name="Path 10123" d="M363.467,276.7l-1.167,2.334h3.071l-.431-2.287Z" transform="translate(-324.703 -245.808)" fill="#141446"/>
    <path id="Path_10124" data-name="Path 10124" d="M161.026,113.6h15.557l1.183-2.3-18.166-.6Z" transform="translate(-137.881 -92.812)" fill="#141446"/>
    <path id="Path_10125" data-name="Path 10125" d="M139.708,70.408l1.449,2.938h18.675l1.152-2.248L139.7,70.4Z" transform="translate(-119.54 -55.669)" fill="#141446"/>
    <path id="Path_10126" data-name="Path 10126" d="M323.822,354.8l-1.222,2.436h7.348l-.423-2.248Z" transform="translate(-288.113 -317.79)" fill="#141446"/>
    <path id="Path_10127" data-name="Path 10127" d="M490.484,441.245h3.3v-1.927L490.1,439.2Z" transform="translate(-442.492 -395.579)" fill="#141446"/>
    <path id="Path_10128" data-name="Path 10128" d="M226.836,234.542l1.261-2.452-8.8-.29,1.355,2.742Z" transform="translate(-192.905 -204.425)" fill="#141446"/>
    <path id="Path_10129" data-name="Path 10129" d="M179.5,151.1l1.4,2.844h12.432l1.206-2.35Z" transform="translate(-156.222 -130.047)" fill="#141446"/>
    <path id="Path_10130" data-name="Path 10130" d="M210.085,194.2l1.23-2.4L199.4,191.4l1.379,2.8Z" transform="translate(-174.563 -167.19)" fill="#141446"/>
    <path id="Path_10131" data-name="Path 10131" d="M124,390.761h9.6l-1.316-2.71-7.661-.251Z" transform="translate(-105.07 -348.205)" fill="#141446"/>
    <path id="Path_10132" data-name="Path 10132" d="M445.707,201.662h6.784v-1.927L445.3,199.5Z" transform="translate(-401.201 -174.656)" fill="#141446"/>
    <path id="Path_10133" data-name="Path 10133" d="M438.207,161.686h7.371v-1.927L437.8,159.5Z" transform="translate(-394.288 -137.789)" fill="#141446"/>
    <path id="Path_10134" data-name="Path 10134" d="M453.2,241.546h6.2v-1.927l-6.6-.219Z" transform="translate(-408.113 -211.43)" fill="#141446"/>
    <path id="Path_10135" data-name="Path 10135" d="M430.715,121.8h7.951v-1.927L430.3,119.6Z" transform="translate(-387.376 -101.015)" fill="#141446"/>
    <path id="Path_10136" data-name="Path 10136" d="M460.6,281.523h5.624V279.6l-6.024-.2Z" transform="translate(-414.934 -248.297)" fill="#141446"/>
    <path id="Path_10137" data-name="Path 10137" d="M140.7,311.822h5.288l-1.371-2.812-3.306-.11Z" transform="translate(-120.462 -275.486)" fill="#141446"/>
    <path id="Path_10138" data-name="Path 10138" d="M423.315,81.825h8.531V79.9l-8.946-.3Z" transform="translate(-380.556 -64.148)" fill="#141446"/>
    <path id="Path_10139" data-name="Path 10139" d="M10,51.29H51.29V49.958L15.162,48.776H51.29V46.849L15.483,45.681H13.361l1.927-9.337-.125-.008h.125l.642-3.086-.768-.024h.768l.635-3.063-1.4-.047h1.41l.627-3.039-2.037-.07h2.052l.627-3.024L15.162,23.9h2.695l.619-3-3.314-.11H18.5l.619-2.977-3.956-.133h3.979l.611-2.961-4.59-.149H51.29V12.64L15.162,11.457H51.29V10H10Z" fill="#141446"/>
    <path id="Path_10140" data-name="Path 10140" d="M468.092,321.407h5.045V319.48l-5.436-.18Z" transform="translate(-421.846 -285.071)" fill="#141446"/>
    <path id="Path_10141" data-name="Path 10141" d="M294.2,433.229l-9.933-.329L283,435.438h11.617Z" transform="translate(-251.615 -389.772)" fill="#141446"/>
    <path id="Path_10142" data-name="Path 10142" d="M139.842,351.245l-1.34-2.765-5.483-.18-.619,2.945Z" transform="translate(-112.812 -311.799)" fill="#141446"/>
    <path id="Path_10143" data-name="Path 10143" d="M115.7,430.185h11.766l-1.293-2.663-9.847-.321Z" transform="translate(-97.42 -384.519)" fill="#141446"/>
    <path id="Path_10144" data-name="Path 10144" d="M483.084,401.268h3.878v-1.927L482.7,399.2Z" transform="translate(-435.671 -358.712)" fill="#141446"/>
    <path id="Path_10145" data-name="Path 10145" d="M475.592,361.384h4.457v-1.927L475.2,359.3Z" transform="translate(-428.759 -321.938)" fill="#141446"/>
  </g>
</svg>
