<svg data-name="Logo - Menzies" xmlns="http://www.w3.org/2000/svg" width="156.669" height="51.842"><g fill="#141446"><path data-name="Path 10102" d="M64.931 45.215h2.546v6.486h1.622v-6.486h2.554v-1.473h-6.722Z"/><path data-name="Path 10103" d="M81.625 35.697h4.528V22.592a10.262 10.262 0 0 0-.533-3.368 7.154 7.154 0 0 0-1.559-2.624 7.288 7.288 0 0 0-2.475-1.708 8.269 8.269 0 0 0-3.29-.619 9.094 9.094 0 0 0-3.6.682 7.584 7.584 0 0 0-2.71 1.919v-2.131h-4.148v20.962h4.481v-12.51a4.765 4.765 0 0 1 1.347-3.525 4.639 4.639 0 0 1 3.439-1.347 4.214 4.214 0 0 1 3.306 1.347 5.023 5.023 0 0 1 1.214 3.525Z"/><path data-name="Path 10104" d="M78.499 47.682a2.481 2.481 0 0 0 .376-1.371 2.6 2.6 0 0 0-.211-1.057 2.363 2.363 0 0 0-.588-.815 2.558 2.558 0 0 0-.9-.517 3.621 3.621 0 0 0-1.151-.18h-3v7.959h1.629v-2.812h1.169l2.06 2.812h1.84l-2.24-3.126a2.459 2.459 0 0 0 1.016-.893Zm-1.6-.541a1.205 1.205 0 0 1-.893.313h-1.363v-2.28h1.363a1.205 1.205 0 0 1 .893.313 1.11 1.11 0 0 1 .313.823 1.148 1.148 0 0 1-.311.832Z"/><path data-name="Path 10105" d="M52.046 44.831a3.884 3.884 0 0 0-1.371-.8 5.249 5.249 0 0 0-1.755-.282h-2.616V51.7h2.616a5.06 5.06 0 0 0 1.755-.3 4.078 4.078 0 0 0 1.371-.822 3.742 3.742 0 0 0 .885-1.269 4.234 4.234 0 0 0 0-3.235 3.647 3.647 0 0 0-.885-1.243Zm-.65 3.909a2.257 2.257 0 0 1-.541.8 2.419 2.419 0 0 1-.846.509 3.251 3.251 0 0 1-1.1.18h-.979v-5.013h.979a3.256 3.256 0 0 1 1.1.172 2.373 2.373 0 0 1 .846.486 2.1 2.1 0 0 1 .541.776 2.891 2.891 0 0 1 0 2.092Z"/><path data-name="Path 10106" d="M106.639 31.812H95.547l11.014-15.792v-1.277h-16.74v3.878h10L88.839 34.46v1.238h17.8Z"/><path data-name="Rectangle 1124" d="M54.912 43.742h1.629v7.951h-1.629z"/><path data-name="Path 10107" d="M62.075 16.999a9.194 9.194 0 0 0-3.071-2.005 10.238 10.238 0 0 0-3.885-.728 10.549 10.549 0 0 0-4.269.854 11.2 11.2 0 0 0-3.439 2.327 10.617 10.617 0 0 0-2.3 3.478 11.111 11.111 0 0 0-.83 4.308 10.818 10.818 0 0 0 .854 4.308 10.494 10.494 0 0 0 5.938 5.781 12.117 12.117 0 0 0 4.528.83 11.677 11.677 0 0 0 4.614-.893 12.738 12.738 0 0 0 3.76-2.475l-2.178-3.071a10.655 10.655 0 0 1-2.773 1.817 8.174 8.174 0 0 1-3.329.658 7.109 7.109 0 0 1-4.528-1.449 6.4 6.4 0 0 1-2.3-4.058h15.612a8.063 8.063 0 0 0 .235-1.2 11.814 11.814 0 0 0 .11-1.622 9.975 9.975 0 0 0-.729-3.823 9.318 9.318 0 0 0-2.02-3.037Zm-13.145 6.2a6.611 6.611 0 0 1 2.131-3.737 5.835 5.835 0 0 1 3.925-1.387 5.485 5.485 0 0 1 3.69 1.324 4.959 4.959 0 0 1 1.645 3.8Z"/><path data-name="Path 10108" d="m61.985 47.126-.9-.4a4.011 4.011 0 0 1-.689-.384.631.631 0 0 1-.243-.533.644.644 0 0 1 .29-.588 1.253 1.253 0 0 1 .7-.188 1.5 1.5 0 0 1 .862.243 2.456 2.456 0 0 1 .658.674l1.1-.854a2.98 2.98 0 0 0-1.018-1.081 2.913 2.913 0 0 0-1.622-.431 3.4 3.4 0 0 0-1.034.157 2.433 2.433 0 0 0-.83.454 2.168 2.168 0 0 0-.556.713 2.013 2.013 0 0 0-.2.932 1.912 1.912 0 0 0 .541 1.371 2.786 2.786 0 0 0 .611.5 6.017 6.017 0 0 0 .776.415l.846.384a4.1 4.1 0 0 1 .744.407.658.658 0 0 1 .266.58.773.773 0 0 1-.3.65 1.285 1.285 0 0 1-.822.227 2.1 2.1 0 0 1-.65-.094 1.931 1.931 0 0 1-.525-.259 2.75 2.75 0 0 1-.431-.368 4.684 4.684 0 0 1-.352-.431l-1.12.846a3.433 3.433 0 0 0 3.079 1.763 3.536 3.536 0 0 0 1.1-.165 2.617 2.617 0 0 0 .877-.47 2.13 2.13 0 0 0 .588-.752 2.325 2.325 0 0 0 .219-1 1.9 1.9 0 0 0-.509-1.379 4.78 4.78 0 0 0-1.456-.939Z"/><path data-name="Path 10109" d="M119.719 44.776a4.242 4.242 0 0 0-1.347-.87 4.311 4.311 0 0 0-1.653-.313 4.243 4.243 0 0 0-1.645.313 4.3 4.3 0 0 0-1.339.87 4.1 4.1 0 0 0 0 5.875 4.121 4.121 0 0 0 1.339.87 4.516 4.516 0 0 0 3.306 0 4.242 4.242 0 0 0 1.347-.87 4.147 4.147 0 0 0 .9-4.567 4.263 4.263 0 0 0-.908-1.308Zm-.619 4a2.367 2.367 0 0 1-.533.823 2.41 2.41 0 0 1-.815.533 2.7 2.7 0 0 1-1.01.2 2.617 2.617 0 0 1-1.034-.2 2.456 2.456 0 0 1-.807-.533 2.372 2.372 0 0 1-.533-.823 3.07 3.07 0 0 1 0-2.115 2.265 2.265 0 0 1 .533-.823 2.359 2.359 0 0 1 .807-.54 2.7 2.7 0 0 1 1.034-.2 2.553 2.553 0 0 1 1.01.2 2.317 2.317 0 0 1 .815.54 2.522 2.522 0 0 1 .533.823 2.858 2.858 0 0 1 .2 1.057 2.888 2.888 0 0 1-.196 1.061Z"/><path data-name="Path 10110" d="m127.905 48.489-4.606-4.888h-.541v8.1h1.629v-4.778l4.614 4.919h.533v-8.1h-1.629Z"/><path data-name="Rectangle 1125" d="M109.104 43.742h1.629v7.951h-1.629z"/><path data-name="Path 10111" d="M155.22 26.054a13.817 13.817 0 0 0-4.309-2.6l-1.966-.815a9.9 9.9 0 0 1-2.131-1.112 1.759 1.759 0 0 1 .133-2.875 3.885 3.885 0 0 1 2.052-.494 6.634 6.634 0 0 1 2.647.556 7.251 7.251 0 0 1 2.3 1.582l2.436-2.773a8.946 8.946 0 0 0-3.141-2.413 9.751 9.751 0 0 0-4.12-.83 10.062 10.062 0 0 0-2.906.407 7.044 7.044 0 0 0-2.35 1.175 5.512 5.512 0 0 0-1.559 1.9 5.609 5.609 0 0 0-.58 2.585 5.218 5.218 0 0 0 .384 2.092 5.417 5.417 0 0 0 1.089 1.622 7.723 7.723 0 0 0 1.708 1.3 18.4 18.4 0 0 0 2.287 1.089l2.131.893a11.746 11.746 0 0 1 2.092 1.05 1.751 1.751 0 0 1 .815 1.559 1.916 1.916 0 0 1-.979 1.77 4.585 4.585 0 0 1-2.35.58 6.239 6.239 0 0 1-3.219-.83 12.743 12.743 0 0 1-2.71-2.154l-2.52 2.822a10.319 10.319 0 0 0 8.452 4.05 10.568 10.568 0 0 0 2.985-.407 7.377 7.377 0 0 0 2.475-1.214 5.786 5.786 0 0 0 1.684-2.005 5.931 5.931 0 0 0 .619-2.773 4.974 4.974 0 0 0-1.449-3.737Z"/><path data-name="Rectangle 1126" d="M81.147 43.742h1.629v7.951h-1.629z"/><path data-name="Rectangle 1127" d="M110.507 14.743h4.481v20.962h-4.481z"/><path data-name="Path 10112" d="M135.795 16.999a9.2 9.2 0 0 0-3.071-2.005 10.238 10.238 0 0 0-3.885-.728 10.549 10.549 0 0 0-4.269.854 11.205 11.205 0 0 0-3.439 2.327 10.5 10.5 0 0 0-2.3 3.478 11.111 11.111 0 0 0-.83 4.308 10.817 10.817 0 0 0 .854 4.308 10.494 10.494 0 0 0 5.938 5.781 12.117 12.117 0 0 0 4.528.83 11.678 11.678 0 0 0 4.614-.893 12.738 12.738 0 0 0 3.76-2.475l-2.178-3.071a10.655 10.655 0 0 1-2.773 1.817 8.174 8.174 0 0 1-3.329.658 7.109 7.109 0 0 1-4.528-1.449 6.4 6.4 0 0 1-2.3-4.058h15.6a8.078 8.078 0 0 0 .235-1.2 11.824 11.824 0 0 0 .11-1.622 9.972 9.972 0 0 0-.729-3.823 9.177 9.177 0 0 0-2.008-3.037Zm-13.145 6.2a6.611 6.611 0 0 1 2.131-3.737 5.835 5.835 0 0 1 3.925-1.387 5.486 5.486 0 0 1 3.69 1.324 4.958 4.958 0 0 1 1.645 3.8Z"/><path data-name="Path 10113" d="M97.832 48.528a2.19 2.19 0 0 1-.133.783 1.53 1.53 0 0 1-.924.909 1.991 1.991 0 0 1-.689.117 1.96 1.96 0 0 1-.689-.117 1.513 1.513 0 0 1-.556-.345 1.636 1.636 0 0 1-.368-.564 2.187 2.187 0 0 1-.133-.783v-4.786h-1.631v4.669a3.928 3.928 0 0 0 .251 1.434 3.155 3.155 0 0 0 .7 1.081 2.992 2.992 0 0 0 1.073.682 3.774 3.774 0 0 0 1.347.235 3.731 3.731 0 0 0 1.339-.235 3.029 3.029 0 0 0 1.065-.682 3.252 3.252 0 0 0 .713-1.081 3.77 3.77 0 0 0 .259-1.434V43.75h-1.629Z"/><path data-name="Rectangle 1128" d="m108.75 8.255 3.994-3.994 3.993 3.994-3.993 3.994z"/><path data-name="Path 10114" d="M89.748 47.392a1.828 1.828 0 0 0 .431-.627 2.057 2.057 0 0 0 .157-.807 2.132 2.132 0 0 0-.188-.9 2 2 0 0 0-.517-.7 2.338 2.338 0 0 0-.8-.454 3.016 3.016 0 0 0-1.018-.165h-2.812v7.959h3.533a3.1 3.1 0 0 0 1.065-.172 2.351 2.351 0 0 0 .83-.486 2.1 2.1 0 0 0 .533-.736 2.329 2.329 0 0 0 .2-.948 1.958 1.958 0 0 0-.376-1.222 2.172 2.172 0 0 0-1.038-.742Zm-3.157-2.248h1.112a1.076 1.076 0 0 1 .768.243.851.851 0 0 1 .266.666.873.873 0 0 1-.266.666 1.056 1.056 0 0 1-.768.251h-1.112Zm2.663 4.888a1.2 1.2 0 0 1-.838.266h-1.833v-2h1.833a1.2 1.2 0 0 1 .838.274.944.944 0 0 1 .3.729.908.908 0 0 1-.299.731Z"/><path data-name="Path 10115" d="M100.887 45.215h2.546v6.486h1.629v-6.486h2.554v-1.473h-6.729Z"/><path data-name="Path 10116" d="m22.059 23.782-2.546-.086 1.277 2.577Z"/><path data-name="Path 10117" d="m31.255 26.336-.431-2.272-3.588-.117-1.191 2.389Z"/><path data-name="Path 10118" d="m22.349 23.226 1.277-2.507-5.671-.18 1.332 2.687Z"/><path data-name="Path 10119" d="M10.889 23.228h3.126l-1.387-2.867-1.128-.031Z"/><path data-name="Path 10120" d="M29.148 20.116h.932l-.251-1.355Z"/><path data-name="Path 10121" d="m12.511 20.117-.674-1.379-.29 1.379Z"/><path data-name="Path 10122" d="m31.999 30.324-7.818-.251-1.246 2.483h9.486Z"/><path data-name="Path 10123" d="m28.764 20.892-1.167 2.334h3.071l-.431-2.287Z"/><path data-name="Path 10124" d="M13.145 10.788h15.557l1.183-2.3-18.166-.6Z"/><path data-name="Path 10125" d="m10.168 4.739 1.449 2.938h18.675l1.152-2.248-21.284-.698Z"/><path data-name="Path 10126" d="m25.709 27.01-1.222 2.436h7.348l-.423-2.248Z"/><path data-name="Path 10127" d="M37.992 35.666h3.3v-1.927l-3.684-.118Z"/><path data-name="Path 10128" d="m23.931 20.117 1.261-2.452-8.8-.29 1.355 2.742Z"/><path data-name="Path 10129" d="m13.278 11.053 1.4 2.844H27.11l1.206-2.35Z"/><path data-name="Path 10130" d="m25.522 17.01 1.23-2.4-11.915-.4 1.379 2.8Z"/><path data-name="Path 10131" d="M8.93 32.556h9.6l-1.316-2.71-7.661-.251Z"/><path data-name="Path 10132" d="M34.506 17.006h6.784v-1.927l-7.191-.235Z"/><path data-name="Path 10133" d="M33.919 13.897h7.371V11.97l-7.778-.259Z"/><path data-name="Path 10134" d="M35.087 20.116h6.2v-1.927l-6.6-.219Z"/><path data-name="Path 10135" d="M33.339 10.785h7.951V8.858l-8.366-.273Z"/><path data-name="Path 10136" d="M35.666 23.226h5.624v-1.923l-6.024-.2Z"/><path data-name="Path 10137" d="M10.238 26.336h5.288l-1.371-2.812-3.306-.11Z"/><path data-name="Path 10138" d="M32.759 7.677h8.531V5.752l-8.946-.3Z"/><path data-name="Path 10139" d="M0 41.29h41.29v-1.332L5.162 38.776H41.29v-1.927L5.483 35.681H3.361l1.927-9.337-.125-.008h.125l.642-3.086-.768-.024h.768l.635-3.063-1.4-.047h1.41l.627-3.039-2.037-.07h2.052l.627-3.024-2.682-.083h2.695l.619-3-3.314-.11H8.5l.619-2.977-3.956-.133h3.979l.611-2.961-4.59-.149H41.29V2.64L5.162 1.457H41.29V0H0Z"/><path data-name="Path 10140" d="M36.246 26.336h5.045v-1.927l-5.436-.18Z"/><path data-name="Path 10141" d="m32.585 33.457-9.933-.329-1.267 2.538h11.617Z"/><path data-name="Path 10142" d="m17.03 29.446-1.34-2.765-5.483-.18-.619 2.945Z"/><path data-name="Path 10143" d="M8.28 35.666h11.766l-1.293-2.663-9.847-.321Z"/><path data-name="Path 10144" d="M37.413 32.556h3.878v-1.927l-4.262-.141Z"/><path data-name="Path 10145" d="M36.833 29.446h4.457v-1.927l-4.849-.157Z"/></g></svg>