<svg xmlns="http://www.w3.org/2000/svg" width="223.07" height="73.814"><g fill="#fff"><path data-name="Path 10102" d="M92.451 64.381h3.625v9.235h2.309v-9.235h3.636v-2.1h-9.57Z"/><path data-name="Path 10103" d="M116.219 50.822h6.447v-18.66a14.613 14.613 0 0 0-.758-4.8 10.186 10.186 0 0 0-2.22-3.736 10.378 10.378 0 0 0-3.524-2.431 11.774 11.774 0 0 0-4.685-.881 12.948 12.948 0 0 0-5.131.97 10.8 10.8 0 0 0-3.859 2.738v-3.034h-5.9v29.847h6.38V33.022a6.785 6.785 0 0 1 1.918-5.019 6.605 6.605 0 0 1 4.9-1.918 6 6 0 0 1 4.707 1.918 7.151 7.151 0 0 1 1.729 5.019Z"/><path data-name="Path 10104" d="M111.773 67.891a3.533 3.533 0 0 0 .535-1.952 3.7 3.7 0 0 0-.3-1.506 3.366 3.366 0 0 0-.836-1.16 3.644 3.644 0 0 0-1.283-.736 5.156 5.156 0 0 0-1.64-.257h-4.276v11.332h2.32v-4h1.673l2.933 4h2.61l-3.19-4.45a3.5 3.5 0 0 0 1.454-1.271Zm-2.275-.77a1.717 1.717 0 0 1-1.271.446h-1.941v-3.246h1.941a1.717 1.717 0 0 1 1.271.446 1.581 1.581 0 0 1 .446 1.171 1.634 1.634 0 0 1-.45 1.184Z"/><path data-name="Path 10105" d="M74.104 63.831a5.53 5.53 0 0 0-1.952-1.138 7.476 7.476 0 0 0-2.5-.4h-3.724v11.321h3.725a7.206 7.206 0 0 0 2.5-.424 5.805 5.805 0 0 0 1.952-1.171 5.328 5.328 0 0 0 1.26-1.807 6.028 6.028 0 0 0 0-4.606 5.193 5.193 0 0 0-1.261-1.775Zm-.926 5.566a3.212 3.212 0 0 1-.77 1.138 3.444 3.444 0 0 1-1.2.725 4.63 4.63 0 0 1-1.561.257h-1.399v-7.138h1.394a4.635 4.635 0 0 1 1.561.245 3.377 3.377 0 0 1 1.2.692 2.989 2.989 0 0 1 .77 1.1 4.115 4.115 0 0 1 0 2.978Z"/><path data-name="Path 10106" d="M151.833 45.291H136.04l15.682-22.485v-1.815h-23.835v5.521h14.232l-15.627 22.552v1.762h25.341Z"/><path data-name="Rectangle 1124" d="M78.186 62.281h2.32v11.321h-2.32z"/><path data-name="Path 10107" d="M88.381 24.204a13.091 13.091 0 0 0-4.372-2.855 14.576 14.576 0 0 0-5.532-1.037 15.019 15.019 0 0 0-6.079 1.216 15.952 15.952 0 0 0-4.9 3.313 15.116 15.116 0 0 0-3.279 4.952 15.82 15.82 0 0 0-1.182 6.134 15.4 15.4 0 0 0 1.216 6.134 14.942 14.942 0 0 0 8.454 8.231 17.253 17.253 0 0 0 6.447 1.182 16.626 16.626 0 0 0 6.569-1.271 18.135 18.135 0 0 0 5.354-3.525l-3.1-4.372a15.172 15.172 0 0 1-3.948 2.588 11.638 11.638 0 0 1-4.74.937 10.122 10.122 0 0 1-6.449-2.064 9.11 9.11 0 0 1-3.279-5.778H91.79a11.468 11.468 0 0 0 .335-1.706 16.816 16.816 0 0 0 .156-2.309 14.2 14.2 0 0 0-1.037-5.443 13.268 13.268 0 0 0-2.863-4.327Zm-18.716 8.822a9.413 9.413 0 0 1 3.034-5.32 8.308 8.308 0 0 1 5.588-1.974 7.81 7.81 0 0 1 5.253 1.885 7.06 7.06 0 0 1 2.342 5.409Z"/><path data-name="Path 10108" d="m88.258 67.099-1.283-.569a5.711 5.711 0 0 1-.982-.547.9.9 0 0 1-.346-.758.918.918 0 0 1 .413-.836 1.784 1.784 0 0 1 .993-.268 2.14 2.14 0 0 1 1.227.346 3.5 3.5 0 0 1 .937.959l1.573-1.216a4.242 4.242 0 0 0-1.45-1.539 4.148 4.148 0 0 0-2.309-.613 4.844 4.844 0 0 0-1.472.223 3.465 3.465 0 0 0-1.182.647 3.085 3.085 0 0 0-.792 1.015 2.866 2.866 0 0 0-.29 1.327 2.722 2.722 0 0 0 .77 1.952 3.969 3.969 0 0 0 .87.714 8.569 8.569 0 0 0 1.1.591l1.2.547a5.849 5.849 0 0 1 1.06.58.937.937 0 0 1 .379.825 1.1 1.1 0 0 1-.424.926 1.829 1.829 0 0 1-1.171.323 2.992 2.992 0 0 1-.926-.134 2.747 2.747 0 0 1-.747-.368 3.917 3.917 0 0 1-.613-.524 6.686 6.686 0 0 1-.5-.613l-1.595 1.2a4.888 4.888 0 0 0 4.383 2.51 5.035 5.035 0 0 0 1.562-.234 3.726 3.726 0 0 0 1.249-.669 3.033 3.033 0 0 0 .837-1.071 3.31 3.31 0 0 0 .312-1.428 2.7 2.7 0 0 0-.725-1.963 6.8 6.8 0 0 0-2.058-1.335Z"/><path data-name="Path 10109" d="M170.46 63.753a6.039 6.039 0 0 0-1.918-1.238 6.137 6.137 0 0 0-2.353-.446 6.04 6.04 0 0 0-2.342.446 6.114 6.114 0 0 0-1.907 1.238 5.843 5.843 0 0 0 0 8.365 5.869 5.869 0 0 0 1.907 1.238 6.431 6.431 0 0 0 4.707 0 6.041 6.041 0 0 0 1.918-1.238 5.905 5.905 0 0 0 1.283-6.5 6.069 6.069 0 0 0-1.295-1.865Zm-.881 5.7a3.374 3.374 0 0 1-.758 1.171 3.432 3.432 0 0 1-1.16.758 3.844 3.844 0 0 1-1.439.279 3.725 3.725 0 0 1-1.472-.279 3.5 3.5 0 0 1-1.149-.758 3.374 3.374 0 0 1-.759-1.171 4.37 4.37 0 0 1 0-3.011 3.222 3.222 0 0 1 .759-1.171 3.358 3.358 0 0 1 1.149-.77 3.848 3.848 0 0 1 1.472-.279 3.635 3.635 0 0 1 1.439.279 3.3 3.3 0 0 1 1.16.77 3.594 3.594 0 0 1 .758 1.171 4.068 4.068 0 0 1 .279 1.506 4.112 4.112 0 0 1-.28 1.505Z"/><path data-name="Path 10110" d="m182.115 69.04-6.558-6.96h-.77v11.533h2.32v-6.8l6.569 7h.758V62.28h-2.32Z"/><path data-name="Rectangle 1125" d="M155.346 62.281h2.32v11.321h-2.32z"/><path data-name="Path 10111" d="M221.007 37.097a19.669 19.669 0 0 0-6.134-3.7l-2.8-1.16a14.1 14.1 0 0 1-3.034-1.584 2.5 2.5 0 0 1 .19-4.093 5.531 5.531 0 0 1 2.922-.7 9.447 9.447 0 0 1 3.77.792 10.325 10.325 0 0 1 3.279 2.253l3.469-3.948a12.74 12.74 0 0 0-4.473-3.435 13.884 13.884 0 0 0-5.867-1.182 14.326 14.326 0 0 0-4.138.58 10.027 10.027 0 0 0-3.346 1.673 7.846 7.846 0 0 0-2.22 2.71 7.986 7.986 0 0 0-.825 3.681 7.431 7.431 0 0 0 .547 2.978 7.711 7.711 0 0 0 1.55 2.309 11 11 0 0 0 2.432 1.851 26.205 26.205 0 0 0 3.257 1.55l3.034 1.271a16.733 16.733 0 0 1 2.978 1.495 2.493 2.493 0 0 1 1.16 2.22 2.728 2.728 0 0 1-1.394 2.521 6.528 6.528 0 0 1-3.346.825 8.883 8.883 0 0 1-4.584-1.182 18.144 18.144 0 0 1-3.859-3.067l-3.593 4.008a14.693 14.693 0 0 0 12.035 5.766 15.048 15.048 0 0 0 4.25-.58 10.508 10.508 0 0 0 3.525-1.729 8.239 8.239 0 0 0 2.4-2.855 8.441 8.441 0 0 0 .881-3.948 7.082 7.082 0 0 0-2.066-5.32Z"/><path data-name="Rectangle 1126" d="M115.539 62.281h2.32v11.321h-2.32z"/><path data-name="Rectangle 1127" d="M157.343 20.991h6.38v29.847h-6.38z"/><path data-name="Path 10112" d="M193.346 24.204a13.093 13.093 0 0 0-4.372-2.855 14.577 14.577 0 0 0-5.532-1.037 15.02 15.02 0 0 0-6.079 1.216 15.953 15.953 0 0 0-4.9 3.313 14.944 14.944 0 0 0-3.279 4.952 15.82 15.82 0 0 0-1.182 6.134 15.4 15.4 0 0 0 1.216 6.134 14.941 14.941 0 0 0 8.454 8.231 17.253 17.253 0 0 0 6.447 1.182 16.626 16.626 0 0 0 6.569-1.271 18.137 18.137 0 0 0 5.354-3.525l-3.1-4.372a15.173 15.173 0 0 1-3.948 2.588 11.638 11.638 0 0 1-4.74.937 10.122 10.122 0 0 1-6.447-2.063 9.11 9.11 0 0 1-3.279-5.778h22.218a11.5 11.5 0 0 0 .335-1.706 16.826 16.826 0 0 0 .156-2.309 14.2 14.2 0 0 0-1.037-5.443 13.065 13.065 0 0 0-2.854-4.328Zm-18.716 8.822a9.413 9.413 0 0 1 3.034-5.32 8.308 8.308 0 0 1 5.588-1.974 7.81 7.81 0 0 1 5.253 1.885 7.06 7.06 0 0 1 2.342 5.409Z"/><path data-name="Path 10113" d="M139.297 69.096a3.117 3.117 0 0 1-.19 1.115 2.178 2.178 0 0 1-1.316 1.294 2.835 2.835 0 0 1-.982.167 2.79 2.79 0 0 1-.981-.167 2.154 2.154 0 0 1-.792-.491 2.33 2.33 0 0 1-.524-.8 3.112 3.112 0 0 1-.19-1.115v-6.818h-2.32v6.648a5.594 5.594 0 0 0 .357 2.041 4.493 4.493 0 0 0 1 1.539 4.261 4.261 0 0 0 1.528.97 5.374 5.374 0 0 0 1.918.335 5.313 5.313 0 0 0 1.907-.335 4.314 4.314 0 0 0 1.517-.97 4.627 4.627 0 0 0 1.015-1.539 5.369 5.369 0 0 0 .368-2.041v-6.636h-2.32Z"/><path data-name="Rectangle 1128" d="m154.841 11.753 5.687-5.687 5.686 5.687-5.686 5.687z"/><path data-name="Path 10114" d="M127.786 67.481a2.6 2.6 0 0 0 .613-.892 2.93 2.93 0 0 0 .223-1.149 3.036 3.036 0 0 0-.268-1.283 2.851 2.851 0 0 0-.736-.993 3.331 3.331 0 0 0-1.138-.647 4.3 4.3 0 0 0-1.45-.234h-4v11.332h5.03a4.417 4.417 0 0 0 1.517-.245 3.346 3.346 0 0 0 1.182-.692 2.984 2.984 0 0 0 .759-1.048 3.317 3.317 0 0 0 .279-1.35 2.787 2.787 0 0 0-.535-1.74 3.094 3.094 0 0 0-1.476-1.059Zm-4.495-3.2h1.584a1.532 1.532 0 0 1 1.093.346 1.211 1.211 0 0 1 .379.948 1.244 1.244 0 0 1-.379.948 1.5 1.5 0 0 1-1.093.357h-1.584Zm3.792 6.96a1.7 1.7 0 0 1-1.193.379h-2.61v-2.844h2.61a1.708 1.708 0 0 1 1.193.39 1.345 1.345 0 0 1 .424 1.037 1.292 1.292 0 0 1-.424 1.034Z"/><path data-name="Path 10115" d="M143.646 64.381h3.625v9.235h2.32v-9.235h3.636v-2.1h-9.581Z"/><path data-name="Path 10116" d="m31.408 33.862-3.625-.123 1.818 3.669Z"/><path data-name="Path 10117" d="m44.502 37.496-.613-3.235-5.104-.165-1.7 3.4Z"/><path data-name="Path 10118" d="m31.821 33.07 1.818-3.569-8.075-.257 1.9 3.826Z"/><path data-name="Path 10119" d="M15.503 33.07h4.45l-1.974-4.082-1.606-.045Z"/><path data-name="Path 10120" d="M41.502 28.643h1.327l-.357-1.93Z"/><path data-name="Path 10121" d="m17.812 28.642-.959-1.963-.413 1.963Z"/><path data-name="Path 10122" d="m45.557 43.175-11.131-.357-1.773 3.536H46.16Z"/><path data-name="Path 10123" d="m40.956 29.746-1.662 3.324h4.372l-.613-3.257Z"/><path data-name="Path 10124" d="M18.716 15.359h22.151l1.684-3.279-25.865-.848Z"/><path data-name="Path 10125" d="m14.477 6.748 2.063 4.183h26.59l1.64-3.2-30.304-.994Z"/><path data-name="Path 10126" d="m36.606 38.457-1.74 3.469h10.462l-.6-3.2Z"/><path data-name="Path 10127" d="M54.095 50.782h4.7v-2.744l-5.247-.167Z"/><path data-name="Path 10128" d="m34.074 28.638 1.8-3.491-12.53-.409 1.93 3.9Z"/><path data-name="Path 10129" d="m18.905 15.738 2 4.049h17.7l1.718-3.346Z"/><path data-name="Path 10130" d="m36.338 24.214 1.751-3.424-16.964-.558 1.963 3.982Z"/><path data-name="Path 10131" d="M12.715 46.354h13.674l-1.874-3.859-10.908-.357Z"/><path data-name="Path 10132" d="M49.131 24.214h9.659V21.47l-10.239-.334Z"/><path data-name="Path 10133" d="M48.295 19.786h10.5v-2.744l-11.08-.368Z"/><path data-name="Path 10134" d="M49.957 28.642h8.831v-2.744l-9.4-.312Z"/><path data-name="Path 10135" d="M47.469 15.358H58.79v-2.744l-11.912-.39Z"/><path data-name="Path 10136" d="M50.782 33.071h8.008v-2.744l-8.577-.279Z"/><path data-name="Path 10137" d="M14.578 37.498h7.529l-1.952-4-4.707-.156Z"/><path data-name="Path 10138" d="M46.644 10.931H58.79V8.187l-12.737-.424Z"/><path data-name="Path 10139" d="M0 58.79h58.79v-1.9L7.35 55.21h51.44v-2.744L7.807 50.8H4.785l2.744-13.295-.179-.005h.178l.915-4.394-1.093-.036h1.093l.9-4.361-2-.067h2.008l.892-4.328-2.9-.1h2.922l.892-4.305-3.814-.123h3.837l.881-4.272-4.718-.156H12.1l.881-4.238-5.633-.19h5.666l.87-4.216L7.35 6.5h51.44V3.759L7.35 2.075h51.44V0H0Z"/><path data-name="Path 10140" d="M51.608 37.498h7.183v-2.744l-7.741-.256Z"/><path data-name="Path 10141" d="m46.399 47.636-14.143-.468-1.807 3.614H46.99Z"/><path data-name="Path 10142" d="m24.252 41.926-1.907-3.937-7.807-.257-.881 4.194Z"/><path data-name="Path 10143" d="M11.789 50.781h16.753l-1.84-3.792-14.02-.457Z"/><path data-name="Path 10144" d="M53.27 46.354h5.521v-2.745l-6.068-.2Z"/><path data-name="Path 10145" d="M52.444 41.926h6.342v-2.744l-6.9-.223Z"/></g></svg>